<?xml version="1.0" encoding="UTF-8" standalone="no"?>
<!-- Created with Inkscape (http://www.inkscape.org/) -->

<svg
   xmlns:dc="http://purl.org/dc/elements/1.1/"
   xmlns:cc="http://creativecommons.org/ns#"
   xmlns:rdf="http://www.w3.org/1999/02/22-rdf-syntax-ns#"
   xmlns:svg="http://www.w3.org/2000/svg"
   xmlns="http://www.w3.org/2000/svg"
   xmlns:sodipodi="http://sodipodi.sourceforge.net/DTD/sodipodi-0.dtd"
   xmlns:inkscape="http://www.inkscape.org/namespaces/inkscape"
   id="svg3103"
   version="1.1"
   inkscape:version="0.48.5 r10040"
   width="428"
   height="635"
   sodipodi:docname="IMG_37290668991809.jpeg">
  <metadata
     id="metadata3109">
    <rdf:RDF>
      <cc:Work
         rdf:about="">
        <dc:format>image/svg+xml</dc:format>
        <dc:type
           rdf:resource="http://purl.org/dc/dcmitype/StillImage" />
        <dc:title></dc:title>
      </cc:Work>
    </rdf:RDF>
  </metadata>
  <defs
     id="defs3107" />
  <sodipodi:namedview
     pagecolor="#ffffff"
     bordercolor="#666666"
     borderopacity="1"
     objecttolerance="10"
     gridtolerance="10"
     guidetolerance="10"
     inkscape:pageopacity="0"
     inkscape:pageshadow="2"
     inkscape:window-width="1920"
     inkscape:window-height="1056"
     id="namedview3105"
     showgrid="false"
     inkscape:zoom="1.4314961"
     inkscape:cx="153.59498"
     inkscape:cy="210.12454"
     inkscape:window-x="1366"
     inkscape:window-y="24"
     inkscape:window-maximized="1"
     inkscape:current-layer="svg3103" />
  <path
     inkscape:connector-curvature="0"
     id="path3185"
     d="m 126.80075,268 c 0.85212,0 8.33304,-4.58244 16.62428,-10.18319 13.47923,-9.10526 22.9354,-15.43811 40.57497,-27.17331 3.025,-2.01246 6.625,-4.41867 8,-5.34714 1.375,-0.92847 6.55,-4.29536 11.5,-7.48198 4.95,-3.18662 10.55891,-6.94213 12.46424,-8.34559 4.07554,-3.00202 7.40161,-2.91114 7.84655,0.21438 0.25665,1.80281 -1.65159,3.45792 -10.95293,9.5 -10.89408,7.07671 -18.31274,11.9294 -33.9336,22.19662 -7.13344,4.68865 -9.62905,6.35315 -14.42368,9.62021 -1.21074,0.825 -7.92457,5.27817 -14.91963,9.89594 l -12.71828,8.39593 C 131.42093,273.7539 118.95558,275.6048 126.80075,268 z m 37.86592,66.33333 c -1.41294,-1.41294 -0.51197,-3.92026 3.68677,-10.26001 11.61079,-17.5313 25.9109,-39.51718 31.23332,-48.02007 3.25228,-5.19571 10.47274,-16.44571 16.04546,-25 5.57272,-8.55429 12.09772,-18.59515 14.5,-22.31303 3.25676,-5.04031 4.87392,-6.6937 6.35756,-6.5 3.61865,0.47244 2.82662,3.82496 -2.89282,12.24491 -3.07833,4.53179 -5.59696,8.48555 -5.59696,8.78612 0,0.30056 -3.97054,6.54999 -8.82342,13.88762 -4.85288,7.33762 -11.44064,17.39113 -14.63947,22.34113 -3.19883,4.95 -7.71553,11.925 -10.03711,15.5 -2.32158,3.575 -6.68497,10.325 -9.69643,15 -3.01145,4.675 -7.65025,11.875 -10.30844,16 -2.65819,4.125 -5.31954,7.83061 -5.9141,8.23469 -1.35872,0.92341 -3.04705,0.96596 -3.91436,0.0986 z m 162.76101,-10.54967 c -1.09132,-1.25601 -4.02347,-5.43366 -6.51589,-9.28366 -2.49243,-3.85 -7.47098,-11.5 -11.06345,-17 -3.59247,-5.5 -7.39049,-11.41421 -8.44005,-13.14269 -1.04956,-1.72848 -4.10556,-6.45348 -6.79111,-10.5 -2.68555,-4.04652 -8.08555,-12.28075 -12,-18.29829 -3.91445,-6.01753 -9.94534,-15.24253 -13.40197,-20.5 -6.24818,-9.50334 -7.32982,-13.23096 -4.02207,-13.86118 1.69195,-0.32236 6.78249,6.04878 13.22234,16.54862 1.60351,2.61445 6.1678,9.70354 10.14287,15.75354 3.97506,6.05 12.50761,19.1 18.96122,29 6.45362,9.9 14.8468,22.69889 18.65153,28.44198 6.79961,10.26376 8.07141,14.20594 4.78484,14.83147 -0.84923,0.16163 -2.43695,-0.73377 -3.52826,-1.98979 z m -77.24503,-9.47333 c -1.49191,-2.83613 -2.6729,-82.52577 -1.2621,-85.16188 1.51909,-2.83843 3.90781,-2.73011 5.03256,0.22822 0.49698,1.30717 0.82335,21.21325 0.72525,44.23573 -0.16339,38.346 -0.31957,41.88631 -1.86089,42.18366 -0.92539,0.17853 -2.11106,-0.49005 -2.63482,-1.48573 z M 349,261.38947 c -4.97853,-2.86148 -23.96845,-13.3583 -31,-17.13548 -2.475,-1.32951 -6.525,-3.67384 -9,-5.20961 -2.475,-1.53578 -10.125,-5.80869 -17,-9.49535 -13.87974,-7.44289 -16.59975,-9.54373 -15.62963,-12.07182 1.13112,-2.94765 4.08965,-1.67858 29.19379,12.52279 3.40287,1.925 10.18052,5.71326 15.06144,8.41835 36.01854,19.96212 39.71784,22.46343 36.3744,24.5948 -2.19686,1.40046 -3.03412,1.23053 -8,-1.62368 z m 28,-42.08906 c -1.925,-0.20873 -10.925,-1.30303 -20,-2.43177 -9.075,-1.12874 -22.35,-2.6616 -29.5,-3.40637 -41.83466,-4.35761 -45.5,-4.98744 -45.5,-7.81839 0,-2.8993 2.32048,-3.49161 10,-2.55251 25.03172,3.06105 34.36843,4.16029 50.5,5.94556 9.9,1.09562 22.275,2.42592 27.5,2.95622 21.53643,2.18579 23.77891,2.81348 22.44744,6.28323 -0.66741,1.73925 -5.74642,2.07594 -15.44744,1.02403 z M 75.699509,215.65932 c -0.282958,-0.73738 -0.154259,-1.92352 0.285998,-2.63587 0.740688,-1.19846 19.969972,-4.69825 52.014493,-9.46681 6.325,-0.94122 18.025,-2.76406 26,-4.05075 49.11514,-7.92426 58.76108,-9.14481 60.27854,-7.62735 0.85557,0.85557 0.88219,1.64637 0.0976,2.89898 -0.78136,1.2474 -4.0849,2.20204 -11.97753,3.46119 -44.43475,7.0889 -56.76723,8.99713 -85.89858,13.29124 -13.2,1.94575 -25.575,3.96999 -27.5,4.49831 -5.213208,1.43078 -12.689454,1.22339 -13.300491,-0.36894 z M 249.5,214.07164 c -9.53756,-2.64938 -13.9363,-6.39997 -18.04708,-15.38784 -3.10428,-6.78725 -2.82479,-12.05752 1.0422,-19.65276 2.92319,-5.7415 5.75602,-8.36861 12.01734,-11.14463 10.10723,-4.48116 20.12872,-2.394 28.17436,5.86782 3.89295,3.99754 7.31318,11.76673 7.31318,16.61216 0,3.23785 -4.32339,12.93234 -7.25783,16.27449 -5.57033,6.34425 -15.60467,9.55233 -23.24217,7.43076 z m 37.83187,-28.64918 c -0.82825,-2.15838 1.1842,-3.78055 7.66813,-6.18103 3.025,-1.11991 9.1,-3.41232 13.5,-5.09425 4.4,-1.68193 18.575,-6.95467 31.5,-11.71722 12.925,-4.76254 31.7925,-11.7576 41.92778,-15.54457 C 392.06305,143.09843 401.18968,140 402.20916,140 c 2.41822,0 3.44752,2.77648 1.67758,4.5252 -0.76271,0.75357 -9.26174,4.27481 -18.88674,7.82498 -9.625,3.55018 -27.175,10.05429 -39,14.45359 -11.825,4.3993 -28.87878,10.74317 -37.89728,14.09748 -17.45976,6.49392 -19.81696,7.00702 -20.77085,4.52121 z M 204.5,183.44873 c -1.0705,-0.42111 -22.64832,-2.57822 -49.5,-4.94845 -9.075,-0.80106 -17.85,-1.68207 -19.5,-1.95779 -2.54257,-0.42488 -26.63726,-2.81892 -40,-3.97438 -2.2,-0.19024 -13.675,-1.2983 -25.5,-2.46236 -34.188023,-3.36549 -37.034619,-3.96719 -35.664167,-7.53853 0.719303,-1.87448 5.127619,-1.99533 18.164167,-0.49795 4.95,0.56856 13.5,1.43678 19,1.92937 24.511975,2.19536 32.90893,2.99439 46.5,4.4248 14.81118,1.55881 28.34225,2.87839 47,4.58354 5.775,0.52778 13.875,1.401 18,1.9405 4.125,0.53949 13.8,1.49284 21.5,2.11855 14.23226,1.15653 17.37965,2.19924 16.16813,5.35643 -0.47877,1.24765 -2.12803,1.56103 -7.88675,1.49859 -4.00476,-0.0434 -7.73138,-0.25596 -8.28138,-0.47232 z m 11.96057,-14.01387 C 199.22802,160.29614 194.3887,157.67128 193.5,156.98097 c -0.55,-0.42722 -6.4,-3.67956 -13,-7.22743 -6.6,-3.54786 -16.5,-9.03951 -22,-12.20365 -5.5,-3.16415 -13.6,-7.68655 -18,-10.04979 -17.3002,-9.29193 -39.07064,-21.67728 -40.38674,-22.97629 C 98.442898,102.87515 99.322434,100 101.49713,100 c 1.74947,0 11.98584,4.99897 17.43497,8.51444 3.43135,2.21371 21.4349,12.22565 44.5679,24.78461 10.2928,5.58799 39.9279,22.04887 45.5,25.27306 1.375,0.79562 5.55995,3.08492 9.29988,5.08732 5.44311,2.9143 6.74005,4.05769 6.5,5.73044 -0.43326,3.01917 -2.70788,3.03144 -8.33931,0.045 z m 60.2061,-3.10153 c -1.87804,-1.87803 0.95336,-5.38006 19.63601,-24.28696 11.16647,-11.3005 29.43924,-29.8334 40.60616,-41.18421 11.16693,-11.350812 21.38981,-21.219219 22.71753,-21.929794 3.09931,-1.658697 5.16956,-0.01075 3.791,3.017683 C 361.83933,85.416728 280.94477,167 279.08541,167 c -0.96364,0 -2.05208,-0.3 -2.41874,-0.66667 z M 226.11354,160.25 c -1.60491,-1.5125 -7.99562,-8.375 -14.20156,-15.25 -6.20595,-6.875 -13.83559,-15.2 -16.95477,-18.5 -13.40693,-14.18417 -23.9331,-26.07545 -23.94471,-27.05 -0.0164,-1.378592 2.08874,-3.45 3.50621,-3.45 0.61528,0 10.25385,10.0125 21.41904,22.25 11.16518,12.2375 23.45407,25.61578 27.30863,29.72952 8.37337,8.93639 10.16321,11.51072 9.39496,13.51276 -0.87374,2.27692 -3.27937,1.81911 -6.5278,-1.24228 z m 36.44021,-5.08064 c -0.60007,-1.89066 2.91819,-10.18854 13.42765,-31.66936 12.22602,-24.989356 27.22653,-56.236746 32.94027,-68.617447 3.39498,-7.356349 5.25809,-9.411287 7.68752,-8.479028 3.06997,1.178058 3.30719,0.621228 -25.60243,60.096475 -4.81217,9.9 -10.19652,21.15 -11.96522,25 -10.00958,21.78828 -12.13896,25.5 -14.62914,25.5 -0.70269,0 -1.53908,-0.82379 -1.85865,-1.83064 z m -12.36729,-2.19435 c -0.8053,-2.17693 0.38645,-17.42045 5.43162,-69.47501 1.41149,-14.563396 2.60563,-28.97629 3.85261,-46.5 1.12204,-15.767848 2.82972,-30.6435553 3.70912,-32.3103303 0.52532,-0.9956817 1.71227,-1.6616132 2.63766,-1.4798478 1.37065,0.2692231 1.70381,1.6242929 1.79735,7.3103301 0.0632,3.838917 -0.25787,10.804848 -0.71339,15.479848 -0.45553,4.675 -1.52332,16.825 -2.37288,27 -0.84956,10.175 -2.00466,23.45 -2.5669,29.5 -1.87563,20.18317 -2.82542,30.85742 -4.36935,49.10542 -0.84253,9.95799 -1.98433,19.29549 -2.53733,20.75 -1.19256,3.13667 -3.81397,3.47028 -4.86851,0.61959 z M 239.23245,152.75 C 238.30478,151.60466 234.39936,140.46378 216.53444,88 213.06966,77.825 208.5347,64.775 206.45676,59 c -4.23168,-11.760647 -4.9318,-17.260269 -2.2646,-17.788955 2.35151,-0.466111 4.18641,3.4462 10.45365,22.288955 2.92694,8.8 8.73097,25.9 12.89785,38 17.31566,50.28218 17.91173,52.5 14.11017,52.5 -0.77492,0 -1.86454,-0.5625 -2.42138,-1.25 z"
     style="fill:#ebcf4a"
     sodipodi:nodetypes="csssssssssscccsssssssssssssccsssssssssssssssssssssssssssssssssssssscsssscsssccssssssssssssssssssssssssssssssssssssssssssssssscssssscssscsssssssssssssssssscssssssssssssss" />
  <path
     inkscape:connector-curvature="0"
     id="path3183"
     d="m 66.012526,618.46028 c -4.080944,-9.27907 -7.765484,-16.37726 -8.393357,-16.16963 -0.615543,0.20355 -3.865917,5.28392 -7.223053,11.28972 -5.805708,10.3862 -8.720424,13.34403 -9.961776,10.10912 -0.307786,-0.80208 2.843575,-7.54319 7.003024,-14.98024 C 51.596814,601.27219 55,594.68022 55,594.06042 55,591.0164 49.906578,583.20394 47.187775,582.07778 40.720532,579.39896 35,570.67917 35,563.5 c 0,-7.69695 5.622954,-15.73908 13.336981,-19.07498 2.28966,-0.99015 4.838019,-2.33563 5.663019,-2.98996 0.825,-0.65433 8.925,-3.74601 18,-6.87042 9.075,-3.1244 16.833574,-6.01068 17.241276,-6.41396 1.163917,-1.15129 -15.672713,-50.60905 -17.326567,-50.89696 -0.825959,-0.14378 -5.498556,5.57846 -11.227802,13.75 C 55.289706,498.70167 50.213083,505 49.405522,505 45.626828,505 47.36836,501.25511 58.452172,485.54658 69.2616,470.22693 70.051761,468.79283 69.450138,465.5859 68.672352,461.43995 66.825293,459.72416 61.5,458.20079 53.141871,455.80983 46,446.73238 46,438.5 c 0,-5.23303 3.369094,-11.83225 7.85428,-15.38459 3.309034,-2.6208 8.901754,-4.88807 16.14572,-6.54542 1.862442,-0.42611 6.070325,-5.67503 16.5,-20.58214 7.7,-11.00559 14.17332,-20.56765 14.38515,-21.24901 0.21183,-0.68136 6.84933,-13.68419 14.75,-28.89517 C 123.53582,330.63269 130,317.47019 130,316.59367 130,315.43558 129.03249,315 126.46016,315 c -7.27167,0 -16.1246,-6.96317 -18.91763,-14.87945 -2.17369,-6.1609 -1.90392,-11.81479 0.84076,-17.62055 7.16816,-15.16266 23.14295,-17.97633 34.56288,-6.08763 1.89539,1.9732 3.92039,3.58487 4.5,3.5815 0.57961,-0.003 5.07092,-4.95338 9.98069,-11 C 162.33663,262.94724 166.96325,258 167.70824,258 c 3.78051,0 2.01359,3.62395 -7.34836,15.07149 -12.40323,15.16636 -12.04783,14.64056 -10.76397,15.92442 0.73462,0.73462 6.22621,-1.26886 18.24409,-6.65591 12.6555,-5.67287 17.48772,-7.41228 18.30935,-6.59065 0.61392,0.61392 0.8847,1.71953 0.60174,2.45692 -0.28297,0.73739 -8.88193,5.11568 -19.1088,9.72954 -17.71796,7.99345 -18.64882,8.55395 -19.7506,11.89237 -0.63595,1.92695 -2.91833,5.41516 -5.07196,7.75157 -2.50444,2.71699 -9.84515,15.65822 -20.36771,35.90707 C 113.40341,360.89929 106,375.53361 106,376.00753 c 0,0.47392 3.87608,11.65632 8.6135,24.84979 8.10237,22.56464 8.75612,23.97788 11.01673,23.8154 1.96924,-0.14153 3.71466,1.6331 9.66547,9.82728 3.99424,5.5 7.69922,9.91127 8.23328,9.80282 2.41386,-0.49016 1.26454,-3.68264 -2.72452,-7.56793 -7.21049,-7.0229 -8.55599,-14.92133 -4.05446,-23.80071 3.57953,-7.06072 9.87615,-11.14098 18.07743,-11.71433 4.77823,-0.33404 6.53701,0.0578 11.15549,2.48516 3.44775,1.81207 6.60138,4.47308 8.49611,7.16895 2.63676,3.75165 3.01366,5.14039 3.01707,11.11666 0.003,5.9657 -0.37629,7.3783 -3.00229,11.1694 C 170.47754,438.95824 162.61003,443 155.33974,443 c -5.91977,0 -5.78785,-0.18705 -6.69969,9.5 -1.20826,12.83621 -5.87315,44.10164 -6.70667,44.95 C 141.42002,497.9725 141,507.05131 141,517.62512 l 0,19.22513 5.75,3.82487 c 4.37888,2.91281 6.40575,5.11953 8.5,9.25419 3.42036,6.75281 3.50653,11.90385 0.31385,18.76109 -4.18593,8.99054 -13.70562,14.07874 -24.30816,12.99254 -4.57266,-0.46845 -5.43716,-0.26195 -6.75,1.61241 -0.82813,1.18231 -1.50569,3.25803 -1.50569,4.61271 0,1.35467 -0.82577,3.39204 -1.83504,4.52749 C 119.436,594.38067 115,603.91482 115,605.68572 c 0,1.01206 21.24538,23.37354 22.17431,23.3392 0.37088,-0.0137 -0.23925,-2.61242 -1.35583,-5.77492 -4.53774,-12.85225 0.84735,-25.58585 13.18152,-31.16909 11.46627,-5.19037 24.8603,0.24266 30.61671,12.41909 4.29217,9.07914 2.38751,19.73783 -4.86945,27.25 l -3.13959,3.25 -13.62952,0 C 144.73296,635 144.2824,634.9295 142,632.5 c -1.29175,-1.375 -2.77194,-2.5 -3.28932,-2.5 -0.51739,0 -0.20357,1.125 0.69736,2.5 1.63243,2.49139 1.6268,2.49997 -1.63499,2.49182 -2.89825,-0.007 -4.46822,-1.32412 -13.71011,-11.5 C 118.32256,617.17132 113.27589,612 112.84812,612 111.82114,612 110,615.46046 110,617.41189 c 0,0.84886 4.725,4.71351 10.5,8.58811 5.775,3.8746 10.5,7.48467 10.5,8.02237 0,0.53769 -1.35442,0.97763 -3.00981,0.97763 -1.98874,0 -5.88383,-1.91262 -11.4815,-5.6378 -9.55624,-6.35955 -10.11111,-6.31023 -12.96096,1.15199 C 102.17105,634.11899 101.35983,635 99.417292,635 98.087782,635 97,634.57694 97,634.05987 c 0,-0.51707 4.07305,-10.19775 9.05121,-21.51263 4.97817,-11.31487 8.78985,-20.9954 8.4704,-21.51228 -0.82571,-1.33602 -31.491519,-11.26048 -33.002464,-10.68068 -0.688791,0.26431 -2.064524,3.48099 -3.057183,7.14817 -2.153921,7.95723 -2.151099,7.96042 7.856465,8.89053 7.674158,0.71323 9.309725,1.5277 8.30833,4.13729 -0.546695,1.42466 -1.539157,1.55568 -6.882783,0.9086 -3.434186,-0.41585 -8.579859,-0.80811 -11.434827,-0.87167 -2.854969,-0.0636 -5.517469,-0.44219 -5.916667,-0.84139 -1.198614,-1.19861 -5.41975,-0.81832 -5.939093,0.53506 -0.266113,0.69348 2.67301,8.40367 6.531385,17.13375 C 74.843148,626.1247 78,633.65731 78,634.13375 78,634.61019 76.93951,635 75.643357,635 c -2.087335,0 -3.187912,-1.8901 -9.630831,-16.53972 z m 98.755944,13.99199 c 16.13491,-6.74159 16.13491,-29.16295 0,-35.90454 -15.10137,-6.30976 -30.63618,9.86644 -24.22074,25.22074 2.06467,4.94146 5.11129,8.10723 9.95227,10.34149 4.91275,2.26738 9.4033,2.37511 14.26847,0.34231 z M 73.330619,587.18851 c 1.03385,-3.47132 1.672801,-6.51842 1.419891,-6.77133 -0.252911,-0.25291 -2.887739,0.67036 -5.855174,2.05172 -2.967435,1.38136 -6.632836,2.51596 -8.145336,2.52133 -3.421564,0.0122 -3.674942,2.56418 -0.637922,6.42513 1.830966,2.32769 2.726106,2.64511 6.725446,2.38485 l 4.613368,-0.30021 1.879727,-6.31149 z m 39.017581,-6.09957 c -5.16589,-8.13667 -21.00143,-29.00788 -22.037685,-29.04562 -1.073592,-0.0391 -5.466218,12.4852 -6.908952,19.69887 l -0.57565,2.87825 13.837043,4.59252 c 7.610374,2.52588 14.668734,4.63629 15.685244,4.68978 1.7976,0.0946 1.7976,0.0176 0,-2.8138 z M 120,579.10699 c 0,-1.64884 -2.69331,-3.74701 -3.62013,-2.8202 -0.39064,0.39065 2.52288,4.71321 3.17683,4.71321 0.24382,0 0.4433,-0.85186 0.4433,-1.89301 z m -53.45863,-0.98665 c 13.661568,-6.20559 13.661568,-23.03509 0,-29.24068 -13.143495,-5.97026 -28.581178,4.43369 -26.111637,17.59748 1.344629,7.16749 9.805947,13.47894 18.070267,13.47894 2.2,0 5.818617,-0.82609 8.04137,-1.83574 z m 78.54743,-4.56041 c 4.45391,-2.94745 7.92109,-8.99917 7.88924,-13.77009 -0.0359,-5.38276 -3.37127,-11.35992 -8.07651,-14.4737 -3.59549,-2.37938 -5.27489,-2.81301 -10.8285,-2.79595 -5.54456,0.017 -7.23229,0.46432 -10.78643,2.85866 -4.61442,3.10864 -8.3002,9.43555 -8.26464,14.18687 0.0517,6.9064 5.71483,14.22586 12.7694,16.50412 4.68246,1.51219 13.05558,0.29723 17.29744,-2.50991 z m -33.63316,-6.68566 c -2.1732,-6.15951 -1.80296,-10.98579 1.29436,-16.8724 3.27475,-6.22381 8.7983,-10.46743 15.75,-12.10035 2.75,-0.64596 5.5625,-1.32393 6.25,-1.50661 0.92783,-0.24654 1.25,-4.09889 1.25,-14.94686 0,-11.24119 -0.28854,-14.52119 -1.25,-14.20955 C 132.78963,507.87392 101,553.13076 101,555.28619 101,557.4449 111.04329,571 112.64273,571 c 0.1477,0 -0.38649,-1.85658 -1.18709,-4.12573 z M 85.164759,547.43833 c 2.979307,-8.87537 3.439816,-12.46979 1.585241,-12.37329 -2.724797,0.14177 -19.136421,6.5042 -19.469842,7.54803 -0.195545,0.61219 1.006565,1.67727 2.671355,2.36685 C 73.112525,546.28925 80,553.21635 80,555.08621 c 0,0.59425 0.5625,0.9027 1.25,0.68545 0.6875,-0.21725 2.449141,-3.96725 3.914759,-8.33333 z m 29.950851,-22.74348 c 9.42047,-13.30717 18.51506,-25.97017 20.21021,-28.14001 2.81942,-3.60892 3.23198,-5.143 4.84079,-18 0.96728,-7.73016 2.0064,-15.44011 2.30916,-17.13322 0.5206,-2.91136 -0.29119,-3.85416 -14.96265,-17.3775 C 118.9809,436.1796 112,429.11325 112,428.34111 c 0,-3.74587 3.40311,-2.22093 11.55041,5.17575 4.68918,4.25716 8.735,7.53106 8.99072,7.27535 0.25571,-0.25572 -1.67252,-3.64559 -4.28497,-7.53304 -3.81416,-5.67566 -5.22209,-7.03767 -7.14674,-6.91363 -2.23634,0.14412 -2.90996,-1.24745 -10.05941,-20.78097 -4.21442,-11.51448 -8.16685,-21.10352 -8.78318,-21.30896 -1.33081,-0.4436 -24.398016,31.72311 -23.634733,32.95813 0.288939,0.46751 2.517727,1.78655 4.952863,2.9312 4.858447,2.28374 8.980157,6.59404 11.066578,11.57294 4.433427,10.57964 -2.794244,23.19744 -15.401538,26.88743 -4.452857,1.30329 -5.25,1.90192 -5.25,3.9426 0,1.40456 0.936497,3.00141 2.25,3.83653 1.2375,0.7868 10.739845,3.82178 21.116322,6.7444 10.691968,3.01148 19.090098,5.89698 19.382778,6.65972 1.41463,3.68645 -1.76634,3.48548 -17.974858,-1.13566 C 83.276917,474.23453 78,473.21258 78,474.62964 c 0,0.3463 3.825,12.29105 8.5,26.54388 4.675,14.25283 8.5,27.18791 8.5,28.74463 0,1.55672 -0.675,4.74355 -1.5,7.08185 -0.825,2.3383 -1.5,5.03419 -1.5,5.99087 0,2.25094 3.884056,7.19882 5.073813,6.46351 0.502515,-0.31057 8.621317,-11.45236 18.041797,-24.75953 z M 80.599496,452.60597 C 87.41071,449.43444 90.5,445.0329 90.5,438.5 c 0,-3.67667 -0.63533,-5.89079 -2.400504,-8.36573 C 85.051853,425.86118 76.956673,422.01954 71,422.01954 c -5.956673,0 -14.051853,3.84164 -17.099496,8.11473 -3.324594,4.66139 -3.324594,12.07007 0,16.73146 3.047643,4.27309 11.142823,8.11473 17.099496,8.11473 2.638167,0 6.609869,-0.98242 9.599496,-2.37449 z m 82.999434,-16.5114 c 11.24877,-5.10858 12.48426,-20.04053 2.2202,-26.83296 -5.58936,-3.69887 -12.10266,-4.0702 -17.81913,-1.01591 -11.70401,6.25343 -11.72298,21.60445 -0.034,27.5043 5.39429,2.72269 10.1649,2.82784 15.63292,0.34457 z M 133.29774,308.64896 c 11.09712,-4.63668 13.95297,-19.59914 5.56441,-29.15319 -7.70413,-8.77451 -20.88618,-6.25664 -25.98249,4.96286 -6.45979,14.2212 6.76854,29.89347 20.41808,24.19033 z"
     style="fill:#303030" />
</svg>
